<?xml version="1.0" encoding="utf-8"?>
<svg viewBox="0 0 32 32" xmlns="http://www.w3.org/2000/svg">
<g transform="matrix(0.2718140482902527, 0, 0, 0.2718140482902527, -12.861208915710435, -10.928611755371094)"><path d="M 0 0 H 212.360001 V 198.139999 H 0 V 0 Z" class="st0" style="fill: none;"/><g>
	<path class="st2" d="M104.99,120.93v0.04h1.18C105.78,120.96,105.38,120.96,104.99,120.93z" style="fill: rgb(100, 166, 100);"/>
	<path class="st2" d="M157.05,118.41c2.29-6.01,3.55-12.53,3.55-19.34c0-30.05-24.36-54.41-54.42-54.41&#10;&#9;&#9;c-30.04,0-54.41,24.36-54.41,54.41c0,7.17,1.38,14.01,3.91,20.27c0.49,1.23,1.02,2.44,1.6,3.61c2.34,4.79,5.36,9.18,8.94,13.05&#10;&#9;&#9;c1.17,1.26,2.39,2.47,3.68,3.61c9.63,8.63,22.35,13.87,36.28,13.87c13.94,0,26.67-5.24,36.29-13.87c0.54-0.49,1.07-0.98,1.59-1.48&#10;&#9;&#9;h-37.88c-0.4,0-0.79-0.01-1.18-0.03c-4.03-0.11-7.9-0.85-11.54-2.1c-7.25-2.5-13.55-7.09-18.16-13.05&#10;&#9;&#9;c-0.89-1.16-1.72-2.36-2.49-3.61c-3.6-5.92-5.68-12.86-5.68-20.27c0-21.54,17.52-39.06,39.06-39.06&#10;&#9;&#9;c21.55,0,39.07,17.52,39.07,39.06c0,7.03-1.87,13.64-5.13,19.34H157.05z" style="fill: rgb(100, 166, 100);"/>
	<path class="st2" d="M156,120.96c-0.29,0.68-0.6,1.34-0.91,1.99c-2.27,4.61-5.16,8.86-8.57,12.62h-40.34&#10;&#9;&#9;c-10.85,0-20.59-4.78-27.25-12.34c-1.02-1.16-1.97-2.38-2.84-3.66c-3.96-5.84-6.27-12.9-6.27-20.5c0-20.16,16.27-36.51,36.35-36.51&#10;&#9;&#9;c20.08,0,36.36,16.35,36.36,36.51c0,7.1-2.02,13.73-5.51,19.33h-20.66c6.91-3.67,11.61-10.96,11.61-19.33&#10;&#9;&#9;c0-12.06-9.78-21.9-21.8-21.9c-12.01,0-21.79,9.83-21.79,21.9c0,9.37,5.91,17.39,14.17,20.5c2.02,0.76,4.18,1.24,6.44,1.35v0.04&#10;&#9;&#9;H156z" style="fill: rgb(100, 166, 100);"/>
	<path class="st2" d="M104.99,138.1c0.39,0.02,0.79,0.03,1.18,0.03h-1.18V138.1z" style="fill: rgb(100, 166, 100);"/>
	<path class="st2" d="M106.18,120.96h-1.18v-0.04C105.38,120.96,105.78,120.96,106.18,120.96z" style="fill: rgb(100, 166, 100);"/>
</g></g></svg>
